<svg id="Layer_1" data-name="Layer 1" xmlns="http://www.w3.org/2000/svg" xmlns:xlink="http://www.w3.org/1999/xlink" width="356.25" height="356.25" viewBox="0 0 356.25 356.25"><defs><style>.cls-1{fill:url(#linear-gradient);}.cls-2{fill:url(#linear-gradient-3);}.cls-3{fill:none;stroke:#fff;stroke-miterlimit:10;stroke-width:11px;}.cls-4{fill:#fff;}</style><linearGradient id="linear-gradient" x1="504.88" y1="384" x2="861.13" y2="384" gradientUnits="userSpaceOnUse"><stop offset="0" stop-color="#bf953f"/><stop offset="0.19" stop-color="#c09843"/><stop offset="0.39" stop-color="#c4a150"/><stop offset="0.59" stop-color="#cbaf65"/><stop offset="0.8" stop-color="#d5c382"/><stop offset="1" stop-color="#e0dba6"/></linearGradient><linearGradient id="linear-gradient-3" x1="530.72" x2="800.2" xlink:href="#linear-gradient"/></defs><title>schmeckle</title><path class="cls-1" d="M683,562.13c-4.69,0-9.34-.18-13.85-.53H669l-1-.09c-1.57-.14-3.13-.29-4.68-.47a174.94,174.94,0,0,1-21.18-3.62A178.17,178.17,0,0,1,584.4,235.63l5.42-3.61h.23A178.2,178.2,0,0,1,683,205.88c4.92,0,9.92.21,14.85.62l.51,0c1.4.12,2.79.26,4.18.41a177.09,177.09,0,0,1,87,34.29A178.38,178.38,0,0,1,861.13,384,178.24,178.24,0,0,1,723.84,557.42,180.26,180.26,0,0,1,683,562.13Z" transform="translate(-504.88 -205.88)"/><path class="cls-1" d="M683,215.88c4.64,0,9.36.2,14,.59h.06l.47,0c1.26.1,2.53.24,3.91.39a167.09,167.09,0,0,1,82.12,32.36A168.38,168.38,0,0,1,851.13,384,168.24,168.24,0,0,1,721.54,547.68,170.27,170.27,0,0,1,683,552.13c-4.44,0-8.83-.17-13.06-.5l-.39,0h-.07l-.58-.05c-1.39-.13-3-.27-4.43-.44h-.06a164.5,164.5,0,0,1-20-3.42A168.17,168.17,0,0,1,589.94,244l2.91-1.93h0l2.41-1.48A168.2,168.2,0,0,1,683,215.88m0-10A177.45,177.45,0,0,0,590.06,232h-.23l-5.42,3.61a178.19,178.19,0,0,0,57.75,321.78A175,175,0,0,0,663.33,561c1.55.18,3.11.32,4.68.47l1,.09h.11c4.5.35,9.15.53,13.85.53A178.14,178.14,0,0,0,861.13,384a178.38,178.38,0,0,0-71.55-142.76,177.09,177.09,0,0,0-87-34.29c-1.39-.15-2.77-.3-4.18-.41l-.51,0c-4.94-.41-9.93-.62-14.85-.62Z" transform="translate(-504.88 -205.88)"/><path class="cls-2" d="M835.28,384A152.4,152.4,0,0,1,717.93,532.26a149.33,149.33,0,0,1-18.16,3.1,151,151,0,0,1-16.76.92q-1.72,0-3.44,0c-3.09-.06-6.15-.22-9.18-.47h-.06c-1.37-.13-2.74-.25-4.09-.41a149.33,149.33,0,0,1-18.16-3.1,151.7,151.7,0,0,1-67.67-35.74c-.43-.39-.87-.8-1.3-1.23a145.19,145.19,0,0,1-10.62-10.93,152.3,152.3,0,0,1,30.23-227.22h0a151.21,151.21,0,0,1,49.34-21.4,149.35,149.35,0,0,1,18.16-3.1,151,151,0,0,1,16.76-.92h1.45c4,0,7.87.22,11.74.56h0c1.19.1,2.36.22,3.53.35q5.78.63,11.44,1.68l1.09.22c1.89.36,3.77.77,5.63,1.2A152.33,152.33,0,0,1,835.28,384Z" transform="translate(-504.88 -205.88)"/><line class="cls-3" x1="178.13" y1="178.13" x2="178.13" y2="178.12"/><path class="cls-4" d="M748.42,384.66Q735.61,369.27,708,360q-6.91-2.3-14-4.31A79.36,79.36,0,0,1,681.33,351a30.06,30.06,0,0,1-9.06-6.49,13.47,13.47,0,0,1-3.46-9.5,16.16,16.16,0,0,1,6.91-13.53q6.91-5.19,17.86-5.18a49,49,0,0,1,17.84,3.6A69.87,69.87,0,0,1,729.85,331l19.93-39.09a114.52,114.52,0,0,0-42.39-19.77c-1-.23-1.92-.44-2.9-.64l-.82-.17c-3.27-.66-6.6-1.17-10-1.54-.88-.09-1.77-.19-2.67-.26h0q-3-.16-6.06-.16h-1.4a88.26,88.26,0,0,0-29.85,5.17,66.81,66.81,0,0,0-23.6,14.54,65,65,0,0,0-15,22.47,76.89,76.89,0,0,0-5.32,29.22q0,16.13,5,26.63a51.42,51.42,0,0,0,13.25,17.42,67.48,67.48,0,0,0,18.72,11.09q10.5,4.16,21.45,7.62,9.23,3.17,15.7,5.76a46.07,46.07,0,0,1,10.5,5.61,18.51,18.51,0,0,1,5.77,6.62,19.52,19.52,0,0,1,1.72,8.48c0,5.39-2.27,10.19-6.77,14.41s-11.37,6.33-20.59,6.33a60,60,0,0,1-24.48-5.48q-12.4-5.46-25.06-16.7L604.25,467.7c.33.33.65.63,1,.93a114.17,114.17,0,0,0,50.93,26.9,112.39,112.39,0,0,0,13.67,2.33c1,.12,2.05.21,3.08.3h0c2.28.19,4.58.32,6.91.36a108.21,108.21,0,0,0,32.86-5.29,75.6,75.6,0,0,0,26.5-15,62.93,62.93,0,0,0,16.41-23.18,77.94,77.94,0,0,0,5.61-30.23Q761.24,400.07,748.42,384.66Z" transform="translate(-504.88 -205.88)"/></svg>